<?xml version="1.0" standalone="no"?>
<!DOCTYPE svg PUBLIC "-//W3C//DTD SVG 20010904//EN"
 "http://www.w3.org/TR/2001/REC-SVG-20010904/DTD/svg10.dtd">
<svg version="1.0" xmlns="http://www.w3.org/2000/svg"
 width="3255.000000pt" height="3180.000000pt" viewBox="0 0 3255.000000 3180.000000"
 preserveAspectRatio="xMidYMid meet">

<g transform="translate(0.000000,3180.000000) scale(0.100000,-0.100000)"
fill="#000000" stroke="none">
<path d="M16035 31624 c-1027 -28 -1982 -139 -2928 -340 -2391 -509 -4618
-1566 -6532 -3101 -793 -636 -1559 -1386 -2206 -2158 -1011 -1208 -1835 -2555
-2434 -3980 -1001 -2378 -1394 -4939 -1159 -7535 297 -3283 1642 -6402 3833
-8895 581 -661 1276 -1324 1966 -1878 1780 -1427 3823 -2438 6033 -2986 989
-245 1965 -387 3057 -442 296 -16 1124 -16 1420 0 917 47 1736 151 2560 328
2399 512 4616 1565 6530 3100 793 636 1559 1386 2206 2158 1521 1818 2597
3915 3179 6200 438 1716 578 3512 414 5315 -199 2196 -875 4354 -1967 6275
-467 823 -1010 1604 -1626 2340 -647 772 -1413 1522 -2206 2158 -1555 1247
-3327 2185 -5220 2762 -1250 381 -2528 602 -3850 665 -229 10 -878 19 -1070
14z m-9675 -4799 c62 -32 60 3 60 -865 0 -871 3 -833 -61 -866 -40 -20 -89
-12 -123 23 l-26 26 0 816 c1 884 -2 835 56 866 37 19 57 19 94 0z m19801 -85
c50 -27 49 -11 49 -864 0 -595 -3 -802 -12 -821 -32 -71 -154 -71 -186 0 -9
19 -12 228 -12 831 l0 806 29 29 c23 23 38 29 71 29 23 0 50 -5 61 -10z
m-5346 -954 c67 -28 65 -4 65 -721 0 -709 2 -688 -60 -720 -37 -19 -63 -19
-101 1 -60 30 -59 22 -59 720 0 703 -2 686 63 718 40 19 49 20 92 2z m-9804
-65 l29 -29 0 -812 c0 -537 -3 -818 -10 -831 -14 -25 -62 -49 -101 -49 -22 0
-41 10 -65 34 l-34 34 0 802 c0 570 3 808 11 823 19 38 51 57 97 57 35 0 49
-6 73 -29z m-4441 -1141 c913 -82 1700 -613 2111 -1425 125 -249 213 -524 254
-795 23 -148 30 -458 16 -616 -56 -602 -325 -1178 -751 -1604 -406 -406 -942
-671 -1507 -745 -63 -8 -135 -15 -161 -15 -26 0 -64 -3 -84 -6 l-38 -7 25 -29
c31 -36 30 139 5 -1680 -13 -915 -24 -1455 -31 -1475 -7 -22 -7 -38 0 -52 26
-47 13 -73 -240 -491 -138 -228 -413 -685 -611 -1015 -199 -330 -367 -606
-374 -614 -11 -12 7 -19 114 -47 449 -115 858 -350 1192 -684 417 -417 676
-952 745 -1540 19 -162 19 -452 0 -609 -80 -646 -399 -1246 -881 -1661 -607
-522 -1399 -738 -2180 -595 -1005 185 -1814 946 -2058 1935 -50 203 -66 326
-73 546 -7 227 6 389 48 597 100 501 349 967 709 1327 205 205 419 359 680
489 345 171 667 255 1065 277 107 5 404 -9 446 -22 14 -4 15 3 11 45 -4 45 0
56 40 123 1043 1726 1189 1971 1179 1981 -15 15 -14 309 8 1849 19 1340 17
1300 59 1335 15 12 22 11 -210 32 -574 53 -1142 325 -1568 751 -305 305 -529
679 -654 1093 -123 406 -140 870 -50 1301 78 369 281 794 522 1088 548 671
1396 1033 2242 958z m19763 -80 c371 -23 671 -102 1002 -264 530 -261 930
-661 1191 -1191 161 -329 242 -633 263 -992 34 -577 -117 -1131 -440 -1612
-199 -298 -494 -581 -799 -767 -119 -72 -345 -181 -474 -229 -234 -86 -597
-155 -818 -155 -52 0 -59 -2 -54 -17 17 -42 50 -3078 35 -3153 -3 -13 251
-438 1083 -1813 80 -133 138 -239 138 -254 0 -17 4 -23 14 -20 7 3 65 17 127
31 341 75 683 85 1019 30 510 -85 1001 -332 1374 -694 146 -142 254 -269 355
-421 323 -481 474 -1035 440 -1612 -21 -359 -102 -663 -263 -992 -261 -530
-661 -930 -1191 -1191 -329 -161 -633 -242 -992 -263 -577 -34 -1131 117
-1612 440 -298 199 -581 494 -767 799 -72 119 -181 345 -229 474 -166 451
-199 982 -90 1466 146 652 557 1242 1120 1608 115 76 328 188 430 228 39 15
72 28 73 30 3 2 -229 389 -952 1589 -268 444 -277 461 -272 500 8 48 8 33 -3
285 -5 113 -17 814 -27 1558 -13 1015 -14 1358 -6 1377 11 25 11 25 -36 25
-123 1 -391 54 -582 115 -803 260 -1425 882 -1685 1685 -126 391 -157 819 -89
1230 85 510 332 1001 694 1374 63 65 158 154 210 198 417 350 958 564 1505
598 66 4 125 8 130 8 6 1 86 -3 178 -8z m-10110 -669 c14 -6 35 -20 46 -32
l21 -23 0 -1729 c0 -1166 -3 -1735 -10 -1748 -14 -25 -62 -49 -101 -49 -22 0
-41 10 -65 34 l-34 34 0 1716 c0 1881 -4 1757 58 1790 32 18 52 19 85 7z
m-5233 -176 c16 -8 35 -25 42 -38 10 -17 15 -446 23 -2105 8 -1714 12 -2084
23 -2091 8 -4 53 -11 100 -15 48 -3 152 -20 232 -36 984 -199 1768 -946 2015
-1921 57 -226 69 -333 70 -629 0 -308 -10 -398 -72 -645 -184 -737 -693 -1365
-1378 -1700 -247 -121 -491 -198 -765 -242 -179 -28 -618 -26 -794 5 -579 100
-1063 353 -1462 763 -383 395 -620 873 -709 1436 -25 154 -31 490 -11 656 50
435 190 818 427 1172 452 676 1201 1106 2005 1152 l117 6 -7 1091 c-3 600 -9
1540 -12 2088 l-7 997 36 36 c39 39 78 45 127 20z m9852 -14 l33 -29 3 -2010
2 -2009 133 -7 c754 -39 1434 -382 1909 -964 241 -294 444 -719 522 -1088 90
-431 73 -895 -50 -1301 -198 -654 -642 -1205 -1239 -1535 -293 -162 -614 -265
-960 -309 -129 -16 -473 -16 -595 0 -508 68 -958 256 -1336 558 -547 437 -900
1095 -965 1797 -14 158 -7 468 16 616 128 848 664 1583 1429 1959 275 135 533
211 869 256 l47 6 0 1995 c0 2152 -3 2040 51 2078 38 26 93 21 131 -13z
m-4579 -4131 l27 -30 0 -456 c0 -293 -4 -462 -10 -475 -14 -25 -62 -49 -101
-49 -22 0 -41 10 -65 34 l-34 34 0 446 c0 494 0 493 63 522 44 19 87 10 120
-26z m-16 -1610 c18 -11 35 -30 38 -42 3 -13 4 -388 3 -834 l-3 -810 140 -12
c879 -76 1667 -606 2076 -1396 200 -387 291 -766 291 -1206 -1 -435 -96 -822
-294 -1200 -411 -787 -1199 -1314 -2078 -1391 l-135 -12 0 -2182 0 -2182 141
-6 c1090 -47 2032 -766 2369 -1807 126 -391 157 -819 89 -1230 -85 -510 -332
-1001 -694 -1374 -426 -439 -942 -699 -1556 -781 -159 -22 -469 -22 -639 -1
-477 60 -947 259 -1325 562 -109 88 -296 275 -384 384 -228 285 -414 656 -502
1002 -119 473 -101 993 52 1455 246 744 805 1332 1541 1619 193 76 457 140
655 160 61 6 67 8 58 25 -7 12 -9 780 -8 2187 l3 2170 -85 6 c-157 13 -304 37
-456 76 -459 117 -863 347 -1199 685 -414 414 -661 918 -747 1520 -17 118 -17
523 0 640 73 515 263 956 579 1340 447 545 1126 896 1820 941 94 6 101 8 93
25 -6 11 -10 328 -10 819 l0 802 34 34 c40 40 83 45 133 14z m4628 -4114 c69
-29 65 37 65 -1106 l0 -1031 367 -392 c202 -216 435 -464 518 -552 223 -236
306 -328 317 -351 9 -19 12 -19 81 -8 296 51 670 41 977 -26 661 -143 1253
-550 1624 -1114 202 -307 331 -639 397 -1021 27 -154 37 -500 20 -671 -105
-1049 -833 -1932 -1844 -2238 -410 -124 -862 -143 -1292 -55 -480 99 -947 353
-1304 710 -405 406 -653 908 -743 1504 -21 140 -17 559 6 710 86 567 341 1071
741 1470 294 294 643 510 1020 634 44 14 82 30 83 34 2 5 -103 124 -235 265
-307 330 -810 869 -885 949 l-58 61 0 1082 c0 745 3 1087 11 1101 11 22 66 59
87 59 7 0 28 -6 47 -14z m-9935 -201 c64 -33 60 44 60 -1098 0 -745 -3 -1044
-11 -1060 -6 -12 -82 -94 -168 -182 -86 -88 -276 -284 -421 -435 -145 -151
-320 -332 -388 -401 l-124 -127 59 -6 c351 -42 765 -196 1083 -404 583 -380
993 -987 1129 -1669 17 -81 35 -206 42 -277 15 -158 6 -469 -16 -616 -85 -560
-343 -1071 -739 -1465 -1096 -1092 -2887 -998 -3868 203 -241 294 -444 719
-522 1088 -90 431 -73 895 50 1301 174 578 538 1072 1039 1412 401 272 835
415 1351 446 l112 7 295 307 c163 168 429 443 591 611 l296 305 0 998 c0 686
3 1005 11 1018 12 24 67 59 92 59 10 0 31 -7 47 -15z"/>
<path d="M6165 24449 c-319 -26 -630 -112 -906 -249 -257 -129 -442 -262 -650
-470 -278 -278 -472 -584 -592 -935 -89 -262 -125 -463 -134 -745 -6 -210 8
-378 47 -569 184 -903 875 -1642 1764 -1886 244 -66 349 -79 651 -80 302 0
399 11 630 70 870 223 1561 919 1779 1790 243 970 -115 1983 -913 2583 -342
257 -744 422 -1161 476 -154 20 -380 26 -515 15z m305 -884 c21 -11 32 -26 38
-53 5 -20 8 -181 7 -357 -1 -176 2 -330 6 -343 18 -49 40 -51 528 -48 494 3
500 2 528 -54 16 -32 19 -2103 3 -2144 -12 -33 -53 -35 -74 -4 -14 20 -16 134
-16 1026 0 1066 1 1048 -45 1066 -29 11 -875 7 -895 -4 -11 -6 -24 -27 -29
-48 -6 -23 -10 -416 -10 -1025 0 -543 -2 -996 -6 -1006 -13 -41 -70 -37 -86 6
-6 16 -9 546 -9 1434 1 973 -2 1414 -9 1428 -6 11 -20 23 -32 26 -39 13 -859
7 -875 -6 -30 -25 -36 -83 -32 -290 5 -177 9 -217 31 -300 42 -160 112 -280
247 -424 76 -81 113 -137 170 -258 167 -353 191 -579 84 -795 -64 -130 -189
-237 -367 -313 -90 -39 -129 -66 -150 -104 -7 -12 -11 -93 -12 -211 0 -205 -5
-224 -51 -224 -48 0 -55 29 -52 241 3 224 -1 236 -80 265 -306 110 -479 303
-506 565 -27 255 139 632 450 1021 58 72 112 147 121 167 13 30 16 91 17 376
2 361 3 371 51 394 12 6 211 10 523 10 429 1 507 -1 532 -14z"/>
<path d="M5374 22645 c-18 -20 -72 -87 -119 -150 -281 -374 -412 -705 -366
-926 34 -164 159 -305 345 -389 59 -27 131 -41 112 -23 -4 4 -17 8 -29 8 -15
0 -23 7 -25 23 -2 14 -10 22 -23 22 -12 0 -19 7 -19 20 0 13 -7 20 -20 20 -18
0 -20 7 -20 60 0 52 -2 60 -19 60 -15 0 -20 10 -25 45 -5 29 -12 45 -22 45 -8
0 -14 9 -14 20 0 11 7 20 15 20 8 0 15 9 15 20 0 11 -6 20 -14 20 -11 0 -15
35 -20 168 -4 92 -3 197 2 233 7 62 6 69 -15 93 -44 51 -18 96 55 96 35 0 42
3 42 20 0 13 7 20 20 20 17 0 20 7 20 46 0 41 2 45 23 44 42 -4 57 0 57 15 0
9 8 19 18 22 9 4 23 15 30 25 15 21 52 24 70 6 7 -7 12 -36 12 -65 0 -46 3
-53 20 -53 13 0 20 -7 20 -19 0 -13 8 -21 23 -23 14 -2 23 -10 23 -23 1 -11 2
-27 3 -36 1 -9 10 -19 21 -22 15 -4 20 -14 20 -40 0 -26 5 -36 20 -40 12 -3
20 -14 20 -26 0 -14 6 -21 20 -21 17 0 20 -7 20 -40 l0 -40 40 0 40 0 0 -59
c0 -54 2 -60 23 -63 14 -2 23 -11 25 -25 2 -13 10 -23 18 -23 8 0 14 -9 14
-20 0 -11 -7 -20 -15 -20 -12 0 -15 -16 -16 -82 -1 -170 -2 -173 -26 -176 -19
-3 -23 -10 -23 -43 0 -32 -3 -39 -20 -39 -13 0 -20 -7 -20 -20 0 -13 -7 -20
-20 -20 -13 0 -20 -7 -20 -20 0 -13 -7 -20 -19 -20 -12 0 -20 -9 -24 -27 -3
-16 -4 -30 -1 -32 9 -9 123 69 174 120 65 64 122 168 141 256 37 182 -48 456
-231 736 -112 173 -271 377 -292 377 -6 0 -26 -16 -44 -35z"/>
<path d="M5500 21151 c0 -5 9 -7 20 -4 11 3 20 7 20 9 0 2 -9 4 -20 4 -11 0
-20 -4 -20 -9z"/>
<path d="M4395 13903 c-22 -2 -95 -13 -163 -24 -959 -158 -1749 -888 -1986
-1834 -217 -869 45 -1778 691 -2395 816 -779 2053 -908 3014 -314 314 194 619
503 814 824 162 266 279 590 330 915 9 55 19 188 22 295 15 520 -122 1004
-406 1431 -410 619 -1062 1017 -1796 1099 -84 9 -429 11 -520 3z m-26 -957
c16 -14 21 -31 21 -68 0 -51 23 -87 58 -89 9 -1 271 -2 582 -3 564 -1 565 -1
629 -24 116 -42 194 -112 251 -224 85 -172 54 -373 -79 -506 -39 -39 -250
-188 -493 -350 -27 -18 -48 -38 -45 -45 9 -29 112 -18 120 13 5 18 14 20 91
20 79 0 86 -2 86 -20 0 -17 7 -20 40 -20 28 0 40 -4 40 -14 0 -8 21 -22 46
-32 94 -36 195 -133 240 -229 127 -273 -46 -591 -347 -635 -89 -13 -149 -30
-149 -42 0 -4 -7 -8 -16 -8 -9 0 -18 -9 -21 -20 -3 -11 -12 -20 -20 -20 -13 0
-170 -139 -283 -250 -25 -25 -52 -49 -61 -55 -119 -74 -109 -70 -211 -73 -93
-2 -98 -1 -98 18 0 17 -7 20 -41 20 -32 0 -42 4 -46 20 -3 11 -12 20 -20 20
-8 0 -17 9 -20 20 -12 45 -40 11 -119 -145 -46 -90 -88 -161 -97 -163 -21 -4
-40 33 -31 61 4 12 19 40 34 62 36 54 134 256 134 275 -2 53 -5 60 -24 60 -18
0 -20 7 -20 60 0 53 -2 60 -20 60 -17 0 -20 7 -20 44 l0 44 -362 4 c-349 4
-365 5 -427 27 -124 46 -223 143 -272 269 -30 76 -33 222 -6 300 28 78 91 167
156 216 67 52 423 301 452 316 25 14 25 50 0 50 -47 0 -81 -13 -81 -31 0 -17
-9 -19 -85 -19 -69 0 -85 3 -85 15 0 11 -11 15 -41 15 -30 0 -42 4 -46 18 -2
9 -33 30 -68 46 -93 41 -167 112 -211 200 -31 64 -37 88 -45 177 -11 144 -11
582 1 614 5 14 20 30 32 35 13 5 226 8 499 7 453 -2 478 -3 498 -21z m749
-2696 c2 -19 -12 -40 -65 -92 -93 -92 -128 -117 -305 -209 -157 -82 -198 -92
-198 -49 0 23 28 43 155 111 146 77 222 130 295 204 51 51 71 65 90 63 18 -2
26 -10 28 -28z"/>
<path d="M4093 12883 c-125 -3 -133 -5 -133 -23 0 -17 7 -20 41 -20 32 0 42
-4 46 -20 6 -22 22 -25 146 -35 88 -8 107 1 107 46 0 34 -24 60 -53 57 -12 -1
-82 -4 -154 -5z"/>
<path d="M3452 12870 c-31 -13 -44 -53 -36 -111 5 -39 10 -49 25 -49 15 0 19
8 19 40 0 33 3 40 20 40 15 0 20 7 20 25 0 23 4 25 40 25 32 0 40 4 40 19 0
15 -8 18 -52 19 -29 0 -63 -3 -76 -8z"/>
<path d="M4169 12693 c0 -5 0 -68 1 -140 1 -128 1 -133 -19 -133 -18 0 -21 -6
-21 -47 0 -73 -11 -123 -26 -123 -10 0 -14 -14 -14 -47 0 -72 -11 -123 -26
-123 -8 0 -14 -15 -16 -37 -2 -30 -8 -38 -28 -43 -43 -10 -5 -22 78 -23 57 -1
86 4 112 18 43 22 928 643 953 668 10 10 15 22 12 27 -7 12 -1005 14 -1006 3z"/>
<path d="M5380 12683 c-57 -19 -352 -222 -1637 -1127 -84 -58 -168 -125 -187
-148 -52 -61 -79 -138 -79 -228 0 -140 68 -252 195 -321 59 -32 69 -34 159
-34 89 0 100 2 165 35 60 30 1426 980 1666 1158 133 99 189 194 190 322 0 101
-31 171 -111 251 -49 49 -81 71 -124 87 -69 26 -171 28 -237 5z"/>
<path d="M5105 11515 c-55 -25 -980 -682 -983 -697 -4 -22 6 -23 181 -20 129
2 157 6 157 17 0 8 9 15 20 15 15 0 20 7 20 25 0 22 4 25 39 25 30 0 40 4 44
20 3 11 12 20 21 20 9 0 16 8 16 20 0 15 7 20 25 20 18 0 25 -5 25 -20 0 -13
7 -20 20 -20 13 0 20 7 20 20 0 18 7 20 80 20 73 0 80 2 80 20 0 15 7 20 25
20 18 0 25 -5 25 -20 0 -13 7 -20 20 -20 15 0 20 7 20 25 0 18 5 25 20 25 11
0 20 7 20 15 0 14 19 19 73 18 10 0 17 8 17 19 0 10 6 18 14 18 9 0 16 17 20
45 6 36 11 45 27 45 12 0 19 7 19 20 0 13 7 20 20 20 19 0 20 7 20 105 0 98 1
105 20 105 13 0 20 7 20 20 0 13 7 20 20 20 16 0 20 7 20 35 l0 35 -77 0 c-45
-1 -91 -7 -108 -15z"/>
<path d="M5798 11405 c2 -14 11 -25 19 -25 10 0 11 4 3 19 -16 30 -28 33 -22
6z"/>
<path d="M5834 11348 c3 -13 6 -40 6 -60 0 -26 5 -38 14 -38 18 0 25 -40 19
-112 -4 -37 -10 -58 -19 -58 -7 0 -15 -18 -19 -40 -4 -25 -12 -40 -21 -40 -8
0 -14 -9 -14 -20 0 -15 -7 -20 -25 -20 -22 0 -25 -4 -25 -39 0 -38 -1 -39 -39
-46 -30 -5 -40 -12 -43 -30 -4 -21 -2 -22 19 -14 80 30 148 94 190 178 24 49
28 67 28 151 0 82 -4 103 -27 153 -26 56 -56 80 -44 35z"/>
<path d="M25890 24356 c-466 -60 -900 -244 -1265 -539 -178 -144 -382 -370
-511 -567 -479 -731 -533 -1679 -140 -2459 499 -993 1577 -1527 2672 -1325
896 164 1644 834 1909 1711 81 266 110 496 102 797 -9 315 -60 566 -173 848
-123 308 -304 579 -549 823 -382 383 -822 607 -1375 701 -130 22 -528 28 -670
10z m285 -638 c43 -19 423 -500 607 -768 299 -434 528 -935 589 -1288 70 -413
-51 -776 -340 -1018 -169 -141 -455 -264 -631 -270 -41 -1 -81 -3 -87 -3 -7
-1 -13 -7 -13 -15 0 -9 -21 -15 -71 -20 l-71 -6 -84 -78 c-101 -92 -113 -99
-153 -83 -41 18 -57 60 -42 111 17 59 4 75 -82 100 -213 61 -379 138 -509 235
-382 287 -481 732 -289 1303 161 482 473 1010 968 1639 136 174 153 186 208
161z"/>
<path d="M26128 23519 c-21 -11 -250 -314 -375 -494 -183 -264 -368 -576 -479
-810 -30 -62 -54 -116 -54 -119 0 -3 7 -6 15 -6 8 0 15 9 15 20 0 13 7 20 20
20 17 0 20 7 20 40 0 33 3 40 20 40 17 0 20 7 20 41 0 32 4 42 20 46 15 4 20
14 20 40 0 26 5 36 20 40 20 5 24 17 20 61 -1 17 4 22 24 22 24 0 26 3 26 45
0 38 3 45 20 45 13 0 20 7 20 20 0 13 7 20 20 20 16 0 20 7 20 36 0 27 5 37
19 41 13 3 22 17 26 43 6 33 11 39 40 44 21 4 35 13 38 26 3 12 14 20 26 20
14 0 21 6 21 20 0 13 7 20 20 20 13 0 20 7 20 20 0 13 7 20 20 20 13 0 20 7
20 20 0 17 7 20 40 20 33 0 40 3 40 20 0 17 7 20 45 20 42 0 45 2 45 25 0 26
0 26 83 23 76 -3 82 -5 85 -25 3 -19 10 -23 43 -23 32 0 39 -3 39 -20 0 -13 7
-20 20 -20 13 0 20 -7 20 -20 0 -14 7 -20 21 -20 12 0 23 -8 26 -20 3 -11 14
-20 24 -20 14 0 19 -7 19 -25 0 -18 5 -25 20 -25 17 0 20 -7 20 -39 0 -22 -5
-41 -11 -43 -6 -2 4 -21 21 -43 75 -94 224 -310 299 -433 152 -252 254 -490
282 -659 l12 -73 53 0 c47 0 54 2 54 20 0 15 -7 20 -26 20 -21 0 -25 4 -22 23
2 14 10 22 23 22 13 0 21 -8 23 -22 2 -13 10 -23 18 -23 8 0 14 -9 14 -20 0
-11 -7 -20 -15 -20 -8 0 -15 -9 -15 -20 0 -13 7 -20 20 -20 18 0 20 -7 20 -59
0 -50 3 -59 20 -64 19 -5 20 -14 20 -127 0 -111 -2 -122 -19 -127 -14 -3 -20
-17 -24 -51 -3 -26 -3 -49 -1 -51 8 -9 85 169 103 240 71 280 0 616 -229 1084
-167 340 -375 659 -708 1080 -120 152 -126 157 -164 134z m162 -579 c0 -14 7
-20 21 -20 12 0 23 -8 26 -20 3 -11 12 -20 20 -20 8 0 17 -9 20 -19 3 -11 13
-21 24 -24 11 -3 19 -14 19 -26 0 -14 6 -21 20 -21 13 0 20 -7 20 -20 0 -13
-7 -20 -20 -20 -13 0 -20 7 -20 20 0 13 -7 20 -20 20 -14 0 -20 7 -20 21 0 12
-8 23 -19 26 -11 3 -21 13 -24 24 -3 11 -14 19 -26 19 -14 0 -21 6 -21 20 0
13 -7 20 -20 20 -13 0 -20 7 -20 20 0 13 7 20 20 20 13 0 20 -7 20 -20z"/>
<path d="M26210 22642 c0 -18 -5 -23 -22 -22 -66 6 -96 0 -101 -20 -4 -15 -14
-20 -41 -20 -26 0 -39 -5 -43 -17 -4 -10 -14 -23 -23 -30 -23 -16 -218 -291
-286 -403 -194 -319 -280 -629 -229 -825 21 -80 73 -175 96 -175 11 0 19 -9
21 -22 2 -15 11 -24 26 -26 12 -2 22 -10 22 -18 0 -9 10 -14 29 -14 49 0 91
-12 91 -26 0 -8 8 -14 18 -15 9 0 42 -2 72 -5 l56 -4 13 35 c11 31 17 35 46
35 27 0 46 -11 93 -55 l60 -55 91 0 c84 0 91 1 91 20 0 19 7 20 105 20 98 0
105 1 105 20 0 16 7 20 38 20 54 0 80 9 85 31 3 10 12 19 20 19 8 0 17 9 20
20 4 16 14 20 46 20 34 0 41 3 41 20 0 13 7 20 20 20 12 0 20 7 20 16 0 9 7
22 15 28 22 16 45 121 45 201 -1 250 -168 619 -470 1037 -52 72 -112 149 -132
172 -34 37 -37 39 -38 18z"/>
<path d="M25162 21953 c-86 -231 -128 -455 -119 -627 8 -133 25 -205 78 -312
66 -135 189 -263 337 -350 l42 -25 0 35 c0 35 -1 36 -40 36 l-39 0 -7 59 c-5
46 -11 60 -25 64 -11 3 -19 12 -19 21 0 9 -7 16 -15 16 -9 0 -15 9 -15 25 0
20 -5 25 -25 25 -18 0 -25 5 -25 20 0 13 7 20 20 20 13 0 20 7 20 20 0 13 -7
20 -20 20 -18 0 -20 7 -20 65 0 58 -2 65 -20 65 -18 0 -20 7 -20 80 l0 80 -40
0 c-33 0 -40 3 -40 20 0 13 7 20 20 20 18 0 20 7 20 65 0 63 -1 65 -25 65 -22
0 -25 4 -25 40 0 29 -4 40 -15 40 -12 0 -15 14 -15 65 0 51 3 65 15 65 12 0
15 14 15 68 0 102 9 142 31 142 12 0 19 7 19 20 0 13 -7 20 -20 20 -13 0 -20
7 -20 20 0 13 7 20 20 20 17 0 20 7 20 50 0 28 -2 50 -4 50 -2 0 -22 -48 -44
-107z"/>
<path d="M27090 20945 c0 -8 2 -15 4 -15 2 0 6 7 10 15 3 8 1 15 -4 15 -6 0
-10 -7 -10 -15z"/>
<path d="M28030 13993 c-969 -67 -1809 -685 -2153 -1584 -316 -822 -171 -1750
381 -2435 409 -508 1001 -835 1648 -910 247 -29 576 -12 819 42 930 205 1674
949 1879 1879 50 226 70 552 47 781 -41 402 -177 785 -396 1114 -150 225 -318
410 -515 569 -483 388 -1106 587 -1710 544z m1010 -792 c93 -36 139 -104 140
-201 0 -70 -14 -122 -41 -145 -17 -16 -19 -26 -13 -72 10 -83 -5 -323 -21
-323 -13 0 -25 -43 -25 -90 0 -19 -6 -29 -20 -33 -12 -3 -20 -14 -20 -26 0
-14 -6 -21 -20 -21 -17 0 -20 -7 -20 -40 0 -33 -3 -40 -20 -40 -17 0 -20 -7
-20 -41 0 -52 3 -50 112 81 163 194 300 423 352 588 27 87 47 226 39 277 -2
17 0 42 6 58 9 22 17 27 45 27 55 0 66 -25 66 -147 0 -56 -5 -126 -11 -155
-41 -204 -158 -426 -357 -678 -103 -131 -367 -390 -484 -475 -83 -61 -97 -75
-102 -105 -8 -46 -8 -168 0 -252 l7 -66 111 -83 c157 -117 395 -358 524 -534
223 -301 307 -499 319 -747 7 -139 -4 -168 -61 -168 -18 0 -38 6 -43 13 -6 6
-13 66 -16 132 -4 76 -14 147 -27 195 -55 193 -216 450 -439 700 l-40 45 -1
-37 c0 -31 4 -38 20 -38 15 0 20 -7 20 -25 0 -18 5 -25 19 -25 21 0 31 -35 31
-110 0 -39 4 -49 20 -53 17 -4 20 -14 20 -66 0 -48 3 -61 15 -61 8 0 15 -9 15
-20 0 -11 -7 -20 -15 -20 -12 0 -15 -16 -15 -81 0 -72 -2 -81 -20 -86 -29 -8
-25 -15 26 -51 58 -42 83 -96 84 -180 0 -77 -16 -118 -63 -159 -68 -60 -39
-58 -907 -58 -866 0 -839 -2 -906 58 -51 44 -67 82 -67 157 0 75 18 122 63
165 26 25 30 36 30 86 0 48 -3 57 -20 62 -17 4 -20 14 -20 66 0 54 2 61 20 61
18 0 20 7 20 68 0 91 10 142 26 142 10 0 14 13 14 41 0 32 4 42 20 46 12 3 20
14 20 27 0 18 -5 15 -35 -19 -123 -142 -258 -342 -330 -490 -59 -121 -85 -219
-92 -345 -3 -58 -10 -113 -15 -122 -12 -25 -70 -24 -93 2 -27 30 -17 224 19
345 58 195 240 498 434 719 73 83 238 240 336 318 56 44 106 86 111 92 6 7 17
15 26 18 19 8 29 143 21 291 l-5 92 -103 79 c-375 288 -709 727 -810 1061 -20
68 -28 119 -31 211 -6 146 1 167 54 162 20 -2 39 -10 44 -18 4 -8 12 -66 18
-128 24 -242 132 -466 362 -752 44 -55 82 -100 85 -100 2 0 4 11 4 24 0 15 -7
26 -20 29 -15 4 -20 14 -20 41 0 24 -5 36 -14 36 -13 0 -26 48 -26 103 0 20
-5 27 -20 27 -18 0 -20 7 -20 80 0 73 -2 80 -20 80 -18 0 -20 7 -20 70 0 63 2
70 20 70 11 0 20 7 20 15 0 8 -9 15 -20 15 -15 0 -20 7 -20 25 0 18 5 25 20
25 19 0 18 1 -4 35 -46 67 -41 185 10 252 29 38 87 71 147 83 23 4 389 7 812
7 628 -2 776 -5 805 -16z"/>
<path d="M27413 13075 c-37 -16 -53 -42 -53 -84 0 -26 4 -31 25 -31 18 0 25 5
25 20 0 15 7 20 25 20 18 0 25 5 25 20 0 15 7 20 28 20 53 0 102 13 102 26 0
8 16 14 43 17 23 2 -10 4 -73 5 -78 1 -125 -3 -147 -13z"/>
<path d="M28773 13083 c23 -4 28 -9 24 -24 -3 -10 -1 -17 4 -14 16 10 79 -7
79 -21 0 -9 11 -14 29 -14 16 0 43 -3 60 -6 28 -6 31 -10 31 -46 0 -32 3 -39
17 -36 28 5 47 55 37 97 -14 57 -54 71 -194 69 -63 0 -102 -3 -87 -5z"/>
<path d="M27485 12110 c3 -5 8 -10 11 -10 2 0 4 5 4 10 0 6 -5 10 -11 10 -5 0
-7 -4 -4 -10z"/>
<path d="M28920 12104 c0 -14 3 -14 15 -4 8 7 15 14 15 16 0 2 -7 4 -15 4 -8
0 -15 -7 -15 -16z"/>
<path d="M28880 12064 c0 -14 3 -14 15 -4 8 7 15 14 15 16 0 2 -7 4 -15 4 -8
0 -15 -7 -15 -16z"/>
<path d="M28880 10935 c0 -8 7 -15 16 -15 14 0 14 3 4 15 -7 8 -14 15 -16 15
-2 0 -4 -7 -4 -15z"/>
<path d="M28920 10895 c0 -8 7 -15 16 -15 14 0 14 3 4 15 -7 8 -14 15 -16 15
-2 0 -4 -7 -4 -15z"/>
<path d="M27410 10102 c-64 -31 -66 -118 -3 -159 26 -17 72 -18 804 -18 774 0
778 0 806 21 59 44 52 133 -13 160 -43 18 -84 18 -84 0 0 -15 -50 -26 -122
-26 -41 0 -48 -3 -48 -20 0 -19 -7 -20 -105 -20 -87 0 -105 -3 -105 -15 0 -8
-9 -15 -20 -15 -11 0 -20 7 -20 15 0 13 -39 15 -290 15 -251 0 -290 -2 -290
-15 0 -9 -9 -15 -25 -15 -16 0 -25 6 -25 15 0 13 -20 15 -121 15 -110 0 -121
2 -126 19 -4 14 -18 20 -64 25 -42 5 -59 11 -59 21 0 21 -47 19 -90 -3z"/>
<path d="M10720 19284 c-19 -2 -78 -9 -130 -15 -453 -52 -917 -251 -1270 -547
-493 -413 -791 -954 -882 -1602 -19 -141 -17 -506 5 -650 84 -547 325 -1028
708 -1409 412 -410 937 -656 1519 -712 152 -14 442 -7 590 16 1079 165 1920
1006 2085 2085 23 148 30 438 16 590 -56 582 -302 1107 -712 1519 -377 378
-857 622 -1384 702 -123 19 -459 33 -545 23z m444 -664 c49 -11 87 -38 105
-75 8 -17 17 -87 22 -176 11 -202 23 -224 170 -307 81 -46 98 -43 156 25 70
82 200 191 244 204 32 10 43 9 83 -10 56 -28 431 -390 440 -425 10 -40 -7 -66
-122 -182 -74 -76 -114 -124 -122 -149 -25 -76 7 -213 61 -261 44 -40 91 -47
243 -40 165 8 199 1 215 -46 15 -42 15 -525 0 -583 -23 -90 -84 -115 -287
-115 -63 0 -115 -5 -135 -14 -40 -16 -89 -71 -122 -136 -38 -74 -34 -92 34
-158 112 -109 190 -203 202 -241 17 -58 -11 -109 -132 -237 -57 -61 -131 -141
-163 -179 -87 -99 -164 -128 -232 -86 -17 10 -55 47 -85 82 -115 136 -167 169
-236 153 -75 -17 -192 -56 -201 -67 -6 -7 -12 -88 -14 -182 -5 -208 -14 -235
-85 -268 -45 -20 -62 -22 -288 -22 -206 0 -245 2 -278 17 -53 24 -75 78 -87
215 -13 134 -23 173 -54 202 -25 23 -165 106 -197 116 -14 5 -44 -18 -121 -95
-111 -110 -167 -153 -211 -164 -46 -11 -103 24 -224 137 -61 56 -143 131 -183
166 -146 129 -137 206 41 351 138 113 150 146 104 297 -30 99 -52 119 -118
110 -73 -10 -288 8 -324 27 -56 29 -65 59 -76 281 -19 348 -15 376 56 429 27
19 41 21 201 21 170 0 173 0 207 26 35 27 139 203 139 235 0 9 -53 71 -118
138 -127 131 -169 195 -158 247 10 50 63 117 212 267 223 224 246 227 424 57
129 -123 157 -136 252 -116 142 29 158 53 158 234 0 217 25 277 120 296 60 12
435 13 484 1z"/>
<path d="M10775 18513 c-95 -21 -105 -44 -105 -245 0 -217 3 -213 -220 -282
-120 -38 -167 -43 -203 -25 -12 6 -58 46 -102 89 -91 89 -148 130 -180 130
-36 0 -104 -53 -216 -167 -118 -121 -134 -144 -120 -170 5 -10 61 -70 124
-133 63 -63 124 -131 136 -150 40 -66 24 -121 -80 -277 -104 -156 -119 -165
-294 -173 -208 -11 -209 -12 -213 -275 -2 -142 1 -196 10 -215 l14 -25 190 -6
c262 -7 259 -5 306 -239 42 -209 43 -205 -101 -319 -81 -64 -111 -105 -111
-150 0 -52 27 -89 122 -169 45 -38 108 -95 138 -126 36 -37 62 -56 78 -56 17
0 61 36 152 125 72 69 140 127 155 131 14 3 43 4 63 1 66 -8 265 -141 315
-209 17 -23 21 -47 24 -145 3 -65 9 -130 15 -145 17 -45 55 -53 243 -52 260 2
260 2 260 244 1 110 5 172 13 187 32 57 133 93 261 93 157 0 257 -38 346 -130
50 -52 89 -73 118 -64 26 8 201 176 258 247 67 84 56 117 -86 257 -102 101
-125 133 -125 176 0 36 104 240 144 283 49 53 79 61 228 61 220 0 232 15 226
291 -4 178 -12 201 -75 218 -21 6 -105 11 -186 11 -169 0 -190 7 -223 67 -35
63 -47 136 -41 252 7 142 27 194 116 293 83 92 89 107 62 151 -22 36 -183 195
-241 239 -81 61 -121 45 -280 -113 l-112 -111 -43 4 c-92 11 -191 81 -271 193
-57 81 -71 126 -79 256 -8 124 -18 150 -65 166 -33 11 -300 16 -345 6z m395
-863 c0 -18 7 -20 61 -20 52 0 62 -3 66 -20 4 -16 14 -20 44 -20 32 0 39 -3
39 -20 0 -13 7 -20 20 -20 13 0 20 -7 20 -20 0 -13 7 -20 20 -20 15 0 20 -7
20 -25 0 -18 5 -25 20 -25 13 0 20 -7 20 -20 0 -14 7 -20 21 -20 12 0 23 -8
26 -20 3 -11 14 -20 24 -20 12 0 19 -7 19 -20 0 -12 7 -20 16 -20 9 0 18 -9
21 -20 3 -11 12 -20 20 -20 8 0 17 -9 20 -20 3 -11 14 -20 24 -20 14 0 19 -7
19 -25 0 -18 5 -25 20 -25 18 0 20 -7 20 -85 0 -76 2 -85 19 -85 26 0 31 -35
31 -204 0 -176 -6 -216 -31 -216 -12 0 -19 -7 -19 -20 0 -13 7 -20 20 -20 13
0 20 -7 20 -20 0 -13 -7 -20 -20 -20 -13 0 -20 -7 -20 -20 0 -13 -7 -20 -20
-20 -17 0 -20 -7 -20 -45 0 -38 -3 -45 -20 -45 -12 0 -20 -7 -20 -16 0 -9 -9
-18 -20 -21 -11 -3 -20 -14 -20 -24 0 -12 -7 -19 -20 -19 -13 0 -20 -7 -20
-20 0 -13 -7 -20 -19 -20 -10 0 -21 -9 -24 -20 -3 -12 -14 -20 -26 -20 -14 0
-21 -6 -21 -20 0 -17 -7 -20 -40 -20 -36 0 -40 -2 -40 -25 0 -18 -5 -25 -19
-25 -10 0 -21 -9 -24 -20 -3 -11 -12 -20 -21 -20 -9 0 -16 -6 -16 -14 0 -15
-50 -26 -122 -26 -41 0 -48 -3 -48 -20 0 -19 -7 -20 -186 -20 -177 0 -186 1
-191 20 -5 17 -14 20 -65 20 -51 0 -61 3 -65 20 -5 20 -17 24 -60 20 -17 -1
-23 4 -23 19 0 16 -6 21 -29 21 -16 0 -43 3 -60 6 -27 6 -31 10 -31 40 0 27
-5 36 -24 43 -13 5 -26 17 -29 25 -4 9 -13 16 -22 16 -8 0 -15 7 -15 15 0 8
-9 19 -20 25 -11 6 -20 17 -20 24 0 8 -9 16 -20 19 -11 3 -20 12 -20 21 0 9
-8 16 -20 16 -15 0 -20 7 -20 25 0 18 -5 25 -20 25 -17 0 -20 7 -20 40 0 33
-3 40 -20 40 -16 0 -20 9 -26 60 -4 37 -11 60 -19 60 -12 0 -25 51 -25 103 0
17 -5 27 -15 27 -8 0 -15 9 -15 20 0 11 7 20 15 20 13 0 15 21 15 130 0 109
-2 130 -15 130 -8 0 -15 9 -15 20 0 11 6 20 14 20 14 0 26 42 26 91 0 22 5 29
20 29 15 0 20 7 20 25 0 18 5 25 20 25 13 0 20 7 20 20 0 13 7 20 20 20 13 0
20 7 20 20 0 13 7 20 20 20 13 0 20 7 20 20 0 13 7 20 20 20 13 0 20 7 20 20
0 13 7 20 20 20 15 0 20 7 20 25 0 18 5 25 19 25 10 0 21 9 24 20 4 16 14 20
46 20 34 0 41 3 41 20 0 13 7 20 19 20 10 0 21 9 24 20 4 17 14 20 66 20 54 0
61 2 61 20 0 19 7 20 250 20 243 0 250 -1 250 -20z"/>
<path d="M10877 17060 c-4 -15 -14 -20 -40 -20 -26 0 -36 -5 -40 -20 -3 -12
-14 -20 -26 -20 -18 0 -21 -6 -21 -45 0 -38 -3 -45 -20 -45 -18 0 -20 -7 -20
-55 0 -48 2 -55 20 -55 17 0 20 -7 20 -45 0 -41 2 -45 25 -45 18 0 25 -5 25
-20 0 -15 7 -20 29 -20 49 0 91 -12 91 -26 0 -10 13 -14 40 -14 33 0 40 3 40
20 0 17 7 20 40 20 33 0 40 3 40 20 0 13 7 20 19 20 15 0 21 10 26 40 4 25 12
40 21 40 8 0 14 10 14 25 0 15 -6 25 -14 25 -14 0 -30 55 -20 71 3 5 12 9 20
9 8 0 14 9 14 20 0 13 -7 20 -20 20 -13 0 -20 7 -20 20 0 13 -7 20 -20 20 -13
0 -20 7 -20 19 0 15 -10 21 -40 26 -25 4 -40 12 -40 21 0 10 -15 14 -59 14
-50 0 -59 -3 -64 -20z"/>
<path d="M20824 19449 c-5 -8 -28 -10 -72 -6 -76 8 -250 -13 -406 -49 -349
-78 -707 -252 -1001 -484 -190 -150 -419 -410 -560 -635 -461 -737 -485 -1708
-61 -2480 321 -585 875 -1026 1511 -1200 246 -67 347 -80 660 -80 250 0 294 3
408 23 363 66 664 185 960 382 591 392 972 994 1084 1710 25 161 25 548 0 708
-68 426 -221 791 -475 1132 -106 142 -342 380 -477 481 -400 299 -841 463
-1340 499 -181 13 -222 13 -231 -1z m-837 -842 c70 -37 67 -18 73 -664 l5
-583 215 143 c434 287 973 639 986 644 11 4 14 -62 16 -394 l3 -399 615 413
c338 227 617 413 621 413 19 0 24 -299 24 -1490 0 -1287 0 -1295 -20 -1330
-33 -56 -52 -59 -419 -59 -310 -1 -332 0 -371 19 -27 13 -49 34 -64 61 -22 39
-23 47 -24 364 -2 251 -5 327 -15 337 -17 17 -384 24 -425 9 l-27 -11 0 -237
c0 -131 -4 -275 -10 -321 -17 -149 -68 -203 -211 -222 -107 -14 -1533 -13
-1584 1 -51 14 -100 64 -114 116 -8 29 -10 478 -9 1565 3 1520 3 1523 24 1563
13 25 36 47 61 61 40 21 52 21 330 20 252 -1 292 -4 320 -19z"/>
<path d="M19382 18529 c-13 -5 -25 -23 -32 -46 -8 -27 -10 -468 -8 -1545 l3
-1507 23 -23 23 -23 737 -3 c470 -2 766 1 816 8 139 18 139 18 144 405 5 329
7 341 65 372 27 15 64 18 244 21 195 3 216 2 258 -17 37 -16 50 -29 66 -66 19
-42 20 -65 19 -333 -1 -158 -1 -299 -1 -314 1 -16 10 -37 21 -48 19 -19 33
-20 338 -20 259 0 322 3 338 14 19 14 19 38 22 1098 1 596 -1 1182 -5 1303
l-8 221 -365 -248 c-201 -135 -457 -309 -569 -385 -112 -76 -212 -142 -222
-147 -14 -7 -29 -2 -59 18 l-40 26 -2 350 -3 350 -70 -47 c-38 -26 -311 -206
-605 -400 l-535 -353 -5 659 c-4 523 -8 663 -18 673 -10 10 -75 13 -281 14
-147 0 -277 -3 -289 -7z m455 -258 c82 -38 77 0 83 -669 l5 -593 155 108 c85
60 180 127 210 148 353 250 799 559 813 563 16 4 17 -19 17 -388 l0 -392 33
20 c321 192 1176 695 1184 696 4 1 13 -48 20 -109 10 -82 12 -359 10 -1080 -2
-953 -2 -971 -22 -1005 -12 -20 -39 -45 -65 -58 -43 -22 -53 -23 -200 -20
-166 4 -206 15 -232 61 -10 16 -14 110 -18 354 -4 254 -8 335 -18 345 -10 10
-97 14 -389 16 -326 2 -379 1 -399 -13 l-24 -15 0 -303 c0 -332 -2 -347 -63
-391 -28 -21 -39 -21 -688 -24 -640 -2 -661 -2 -705 17 -36 16 -49 29 -65 65
-19 44 -19 68 -17 1313 3 1218 4 1269 22 1299 35 58 75 72 216 73 73 0 105 -4
137 -18z"/>
<path d="M19600 18191 c-14 -4 -30 -18 -37 -31 -10 -20 -13 -297 -13 -1267 0
-1230 0 -1243 20 -1263 20 -20 33 -20 660 -20 627 0 640 0 660 20 19 19 20 33
20 318 0 341 2 349 80 390 44 22 50 22 425 22 352 0 383 -2 422 -19 76 -35 77
-41 83 -416 l5 -330 30 -6 c53 -11 253 -10 279 2 14 7 30 25 36 42 11 33 13
1925 2 1964 -7 20 -26 11 -297 -149 -159 -94 -436 -258 -615 -363 l-325 -191
-3 387 -2 388 -213 -148 c-116 -82 -367 -256 -556 -388 l-343 -240 -44 24 -44
25 0 609 c0 716 13 650 -122 648 -46 -1 -94 -4 -108 -8z"/>
<path d="M15985 16074 c-16 -2 -70 -9 -120 -15 -540 -66 -1054 -324 -1445
-725 -319 -328 -521 -685 -631 -1117 -260 -1019 152 -2088 1031 -2672 327
-218 653 -339 1065 -397 136 -19 504 -16 645 5 554 85 1030 324 1415 711 462
464 715 1082 715 1744 0 266 -34 491 -111 735 -126 401 -321 721 -623 1022
-371 369 -852 611 -1376 690 -99 16 -495 29 -565 19z m917 -865 c66 -14 111
-40 128 -76 9 -19 14 -78 16 -185 2 -131 6 -163 21 -189 18 -32 78 -69 110
-69 82 0 156 -57 179 -139 35 -120 74 -141 251 -138 130 2 164 -8 207 -66 19
-26 21 -42 21 -172 0 -137 -1 -145 -24 -168 -12 -14 -39 -29 -60 -34 -26 -6
-37 -15 -39 -31 -3 -17 2 -22 17 -22 19 0 21 -6 21 -63 0 -54 3 -64 22 -72 12
-6 31 -23 42 -38 18 -25 21 -45 24 -165 3 -124 1 -140 -18 -170 -11 -18 -31
-37 -45 -42 -24 -9 -25 -14 -25 -84 0 -70 -1 -75 -22 -78 -19 -3 -16 -7 22
-24 94 -44 122 -111 102 -245 -23 -159 -53 -179 -265 -179 -210 0 -230 -12
-247 -149 -13 -98 -60 -137 -203 -166 -57 -11 -64 -29 -70 -181 -6 -161 -22
-219 -73 -263 -41 -37 -83 -45 -184 -38 -102 7 -161 33 -184 81 -19 40 -31 46
-39 16 -5 -18 -14 -20 -76 -20 -48 0 -73 -4 -78 -13 -4 -8 -21 -22 -38 -33
-25 -16 -48 -19 -160 -19 -140 1 -187 14 -200 55 -3 11 -13 20 -21 20 -8 0
-14 7 -14 15 0 10 -16 15 -62 17 -62 3 -63 2 -73 -27 -18 -54 -59 -71 -192
-79 -128 -7 -172 1 -210 36 -35 33 -44 83 -42 237 3 187 -13 211 -145 230
-100 14 -146 67 -159 178 -7 64 -22 93 -47 93 -10 0 -23 7 -28 16 -7 13 -35
16 -163 18 -168 2 -196 10 -233 59 -17 23 -21 46 -24 135 -5 132 7 180 53 221
33 29 35 34 35 95 0 61 -2 66 -27 78 -41 20 -56 62 -61 167 -7 157 25 243 98
257 l30 7 0 76 0 77 -42 14 c-73 26 -83 50 -83 208 0 217 18 234 248 237 167
3 181 9 213 102 12 34 31 77 43 97 23 37 94 86 125 86 24 0 77 29 103 56 23
25 28 54 38 228 11 191 42 220 235 220 134 1 172 -14 203 -77 21 -42 32 -46
40 -17 5 18 14 20 81 20 63 0 77 3 85 19 19 35 83 51 204 51 118 0 157 -11
184 -50 11 -15 26 -20 65 -20 41 0 51 -3 55 -20 4 -15 14 -20 42 -20 32 1 38
5 56 43 36 76 127 103 257 76z"/>
<path d="M15539 15051 c-32 -33 -41 -91 -14 -91 8 0 15 9 15 20 0 14 7 20 21
20 12 0 23 8 26 20 3 11 15 21 27 22 11 1 28 2 36 4 8 1 26 2 40 3 24 2 24 2
6 16 -12 9 -42 15 -74 15 -46 0 -58 -4 -83 -29z"/>
<path d="M16773 15070 c-31 -12 -29 -30 2 -30 15 0 25 -6 25 -15 0 -8 14 -17
35 -21 25 -4 35 -11 35 -25 0 -23 48 -27 56 -4 10 26 -16 86 -43 96 -30 11
-80 11 -110 -1z"/>
<path d="M17170 14540 c0 -23 4 -30 20 -30 15 0 20 -7 20 -25 0 -18 5 -25 20
-25 13 0 20 -7 20 -20 0 -11 6 -20 14 -20 24 0 -3 78 -41 116 -41 42 -53 43
-53 4z"/>
<path d="M15202 14480 c0 -14 2 -19 5 -12 2 6 2 18 0 25 -3 6 -5 1 -5 -13z"/>
<path d="M14792 14289 c-32 -12 -55 -73 -49 -127 6 -52 23 -72 63 -75 23 -2
30 2 32 21 2 12 9 22 17 22 8 0 16 17 20 40 7 39 8 40 46 40 35 0 39 3 39 25
0 18 5 25 20 25 22 0 28 29 8 32 -49 5 -178 3 -196 -3z"/>
<path d="M17500 14282 c0 -14 8 -22 23 -24 14 -2 23 -11 25 -25 3 -19 10 -23
37 -23 31 0 34 -3 40 -40 5 -30 11 -40 26 -40 12 0 19 -7 19 -20 0 -26 15 -25
34 2 26 36 21 121 -8 155 -23 26 -31 28 -110 32 -81 3 -86 2 -86 -17z"/>
<path d="M17670 13044 c0 -27 -5 -37 -20 -41 -11 -3 -20 -14 -20 -24 0 -12 -7
-19 -20 -19 -14 0 -20 -7 -20 -21 0 -12 -8 -23 -20 -26 -11 -3 -20 -12 -20
-20 0 -13 12 -15 66 -11 55 3 70 8 85 27 24 29 26 117 3 149 -22 32 -34 27
-34 -14z"/>
<path d="M14740 13005 c0 -28 7 -51 21 -69 17 -22 28 -26 67 -25 26 1 37 4 25
6 -15 3 -23 12 -23 24 0 12 -7 19 -20 19 -17 0 -20 7 -20 39 0 33 -3 39 -25
43 -23 5 -25 3 -25 -37z"/>
<path d="M15541 12222 c-1 -65 2 -76 24 -97 19 -20 34 -25 77 -25 99 0 150 53
64 65 -36 6 -46 11 -46 26 0 15 -7 19 -35 19 -28 0 -35 4 -35 20 0 13 -7 20
-19 20 -12 0 -21 8 -24 23 -2 12 -5 -11 -6 -51z"/>
<path d="M16920 12230 c0 -13 -7 -20 -20 -20 -14 0 -20 -7 -20 -21 0 -12 -8
-23 -20 -26 -11 -3 -20 -11 -20 -18 0 -7 -18 -15 -40 -19 -59 -9 -39 -26 30
-26 80 0 111 25 118 98 4 43 2 52 -12 52 -9 0 -16 -8 -16 -20z"/>
<path d="M16101 6490 c-600 -58 -1123 -304 -1540 -722 -406 -406 -653 -929
-712 -1502 -15 -150 -7 -485 15 -616 75 -445 234 -810 504 -1160 85 -109 303
-327 412 -412 350 -270 714 -429 1160 -504 147 -24 485 -30 654 -10 385 45
760 181 1075 390 162 108 261 189 389 317 662 660 895 1616 610 2508 -269 844
-981 1486 -1848 1666 -209 44 -525 63 -719 45z m544 -880 c23 -11 57 -37 75
-57 l33 -36 101 9 c178 16 309 9 411 -21 190 -55 326 -155 496 -363 39 -48
171 -186 293 -307 183 -181 225 -227 234 -260 11 -39 8 -706 -4 -783 -6 -40
-55 -97 -104 -122 -49 -25 -96 -80 -111 -129 -9 -30 -9 -58 0 -116 39 -262
-34 -460 -244 -664 -36 -36 -106 -115 -156 -177 -126 -156 -213 -218 -356
-255 -186 -47 -406 -1 -529 113 -67 62 -95 129 -104 247 l-6 99 -56 60 c-79
86 -102 138 -106 242 -3 65 1 99 15 142 20 59 17 83 -10 76 -8 -1 -105 -89
-216 -195 -241 -230 -253 -237 -426 -237 -129 -1 -162 11 -271 95 -139 107
-164 142 -164 232 0 35 -5 59 -14 66 -10 8 -80 13 -218 14 -187 2 -206 4 -244
24 -43 23 -124 107 -124 128 0 22 -34 43 -93 58 -31 8 -77 27 -101 41 -63 37
-155 141 -190 216 -29 63 -30 69 -41 305 -12 252 -6 391 19 479 34 112 122
222 291 364 49 42 230 214 400 383 226 224 322 313 355 328 43 20 63 21 584
21 521 0 541 -1 581 -20z"/>
<path d="M15556 5505 c-62 -22 -94 -50 -274 -241 -119 -127 -163 -180 -147
-176 13 2 25 13 28 23 3 11 14 19 26 19 14 0 21 6 21 20 0 17 7 20 40 20 33 0
40 3 40 20 0 13 7 20 20 20 13 0 20 7 20 19 0 14 10 20 39 25 27 4 40 12 44
26 4 16 13 20 46 20 34 0 41 3 41 20 0 17 7 20 40 20 33 0 40 3 40 20 0 17 7
20 39 20 30 0 40 4 44 20 5 18 14 20 106 20 94 0 101 1 101 20 0 18 7 20 85
20 78 0 85 -2 85 -20 0 -15 7 -20 25 -20 18 0 25 5 25 20 0 13 7 20 20 20 13
0 20 -7 20 -19 0 -31 46 -31 200 1 206 43 222 48 217 61 -6 19 -938 21 -991 2z"/>
<path d="M16875 5399 c-137 -9 -378 -38 -557 -66 l-108 -17 0 -53 c0 -46 3
-53 20 -53 13 0 20 -7 20 -20 0 -13 -7 -20 -20 -20 -17 0 -20 -7 -20 -45 0
-38 -3 -45 -20 -45 -18 0 -20 -7 -20 -64 0 -55 3 -66 19 -71 27 -8 90 -80 107
-121 20 -47 17 -150 -5 -199 -20 -44 -87 -110 -129 -127 -15 -6 -74 -14 -132
-18 -124 -8 -167 -26 -242 -101 -95 -96 -120 -197 -78 -329 32 -104 44 -218
31 -309 -13 -99 -39 -167 -102 -272 -77 -127 -91 -159 -92 -208 -1 -61 30
-118 95 -176 77 -69 142 -96 225 -96 132 0 183 32 379 234 156 162 215 200
326 213 32 4 58 11 58 15 0 5 18 9 40 9 l40 0 0 45 c0 38 3 45 20 45 13 0 20
7 20 20 0 13 7 20 19 20 10 0 21 9 24 20 4 15 14 20 41 20 29 0 36 4 36 20 0
18 7 20 86 20 77 0 86 -2 91 -20 3 -12 14 -20 25 -20 15 0 19 5 15 20 -6 25
-42 23 455 20 455 -2 453 -2 554 79 95 77 115 153 73 267 -34 90 -73 121 -234
183 -77 30 -201 85 -275 122 -154 76 -192 89 -272 89 -81 0 -155 -31 -256
-107 -157 -119 -191 -163 -192 -251 0 -119 -100 -202 -242 -202 -32 0 -74 6
-92 14 -53 22 -112 82 -136 138 -64 148 37 328 197 354 30 4 54 0 101 -20 71
-30 138 -34 185 -10 60 31 229 135 272 169 58 43 128 60 195 46 27 -6 99 -33
158 -60 59 -27 195 -86 302 -131 107 -45 213 -91 234 -101 36 -19 40 -19 55
-4 39 39 19 254 -32 338 -12 19 -192 207 -400 416 -437 441 -394 412 -606 410
-69 -1 -184 -6 -256 -10z"/>
<path d="M14819 4833 c-153 -147 -250 -318 -285 -501 -18 -97 -18 -297 1 -408
33 -186 94 -262 252 -310 86 -26 84 -25 156 -123 40 -55 73 -80 119 -90 19 -5
113 -6 209 -3 202 6 187 -2 273 140 68 114 97 200 98 288 0 60 -6 86 -39 165
-35 87 -38 102 -38 190 0 91 2 99 33 148 48 78 46 81 -53 81 -69 0 -85 -3 -85
-15 0 -8 -9 -15 -20 -15 -11 0 -20 7 -20 15 0 28 -54 18 -78 -14 -34 -47 -125
-86 -197 -85 -105 1 -203 72 -235 170 -6 19 -15 34 -20 34 -4 0 -11 18 -15 39
-4 27 -13 41 -26 44 -17 5 -19 15 -19 107 0 93 2 102 20 107 16 4 20 14 20 44
0 32 4 39 19 39 10 0 21 9 24 20 3 11 3 20 1 20 -3 0 -45 -39 -95 -87z"/>
<path d="M16130 4820 c-1 -61 -12 -110 -26 -110 -8 0 -15 -18 -20 -45 -4 -28
-11 -45 -20 -45 -22 0 -16 -17 7 -23 28 -7 59 5 86 34 51 56 53 132 3 190
l-29 34 -1 -35z"/>
<path d="M15026 4485 c4 -8 8 -15 10 -15 2 0 4 7 4 15 0 8 -4 15 -10 15 -5 0
-7 -7 -4 -15z"/>
<path d="M15068 4440 c47 -39 142 -38 142 0 0 18 -7 20 -82 20 l-83 -1 23 -19z"/>
<path d="M16628 4214 c-57 -30 -77 -128 -39 -190 27 -45 94 -69 148 -55 44 12
93 54 93 81 0 39 -34 126 -60 152 -23 22 -37 28 -72 28 -24 -1 -55 -7 -70 -16z"/>
<path d="M17405 3559 c-60 -3 -101 -6 -90 -8 11 -2 37 -2 58 -1 31 1 39 -2 44
-18 3 -15 17 -23 44 -27 29 -5 39 -11 39 -26 0 -16 7 -19 45 -19 38 0 45 -3
45 -20 0 -17 7 -20 40 -20 33 0 40 -3 40 -20 0 -17 7 -20 40 -20 l40 0 0 -59
c0 -54 2 -60 23 -63 20 -3 22 -9 25 -85 2 -65 6 -83 17 -83 9 0 15 -10 15 -25
0 -16 -6 -25 -15 -25 -11 0 -15 -11 -15 -39 0 -31 4 -40 21 -44 16 -4 27 4 50
41 65 102 95 233 86 377 -6 98 -24 158 -54 173 -22 12 -345 19 -498 11z"/>
<path d="M16648 2994 c14 -26 45 -57 87 -90 57 -43 68 -75 61 -163 -15 -170
55 -255 249 -306 144 -37 294 -1 420 101 66 54 86 84 55 84 -11 0 -20 -7 -20
-15 0 -12 -16 -15 -85 -15 -69 0 -85 3 -85 15 0 8 -9 15 -20 15 -11 0 -20 -7
-20 -15 0 -8 -9 -15 -20 -15 -11 0 -20 7 -20 15 0 8 -9 15 -20 15 -13 0 -20 7
-20 19 0 16 -8 20 -42 23 -36 2 -44 7 -46 26 -3 18 -10 22 -43 22 -32 0 -39 3
-39 20 0 13 -7 20 -20 20 -13 0 -20 7 -20 19 0 16 -9 21 -45 27 -28 4 -45 11
-45 20 0 8 -9 14 -20 14 -13 0 -20 7 -20 20 0 13 -7 20 -20 20 -13 0 -20 7
-20 20 0 17 -7 20 -40 20 -36 0 -40 3 -40 25 0 18 -5 25 -20 25 -13 0 -20 7
-20 20 0 13 -7 20 -19 20 -11 0 -27 3 -36 7 -15 5 -16 3 -7 -13z"/>
<path d="M22485 10244 c-387 -38 -645 -109 -950 -261 -382 -190 -709 -480
-950 -843 -218 -327 -339 -653 -397 -1065 -19 -136 -16 -504 5 -645 85 -554
324 -1030 711 -1415 464 -462 1082 -715 1744 -715 266 0 491 34 735 111 401
126 721 321 1022 623 372 374 611 852 692 1386 22 145 25 540 5 675 -67 445
-217 813 -474 1160 -88 119 -330 368 -443 457 -436 341 -934 520 -1485 532
-96 2 -193 2 -215 0z m362 -566 c177 -74 349 -251 464 -480 29 -56 39 -67 65
-72 20 -4 34 -14 37 -26 3 -12 14 -20 26 -20 12 0 21 -6 21 -15 0 -8 9 -15 20
-15 13 0 20 -7 20 -19 0 -22 35 -31 116 -31 72 0 193 -17 289 -41 369 -94 563
-349 501 -659 -10 -46 -38 -130 -65 -189 l-47 -106 1 -185 2 -185 35 -70 c154
-304 98 -573 -155 -747 -119 -81 -273 -130 -474 -150 -83 -8 -123 -16 -123
-24 0 -7 -18 -15 -40 -19 -30 -5 -40 -11 -40 -26 0 -12 -7 -19 -20 -19 -13 0
-20 -7 -20 -20 0 -17 -7 -20 -39 -20 -30 0 -40 -4 -44 -20 -3 -13 -14 -20 -29
-20 -18 0 -28 -11 -47 -55 -63 -146 -234 -343 -361 -418 -180 -105 -372 -108
-550 -10 -131 73 -306 271 -379 431 -22 47 -27 52 -58 52 -26 0 -33 4 -33 19
0 14 -10 20 -39 25 -27 4 -40 12 -44 26 -3 12 -14 20 -26 20 -14 0 -21 6 -21
20 0 13 -7 20 -20 20 -11 0 -20 7 -20 15 0 12 -14 15 -62 15 -136 0 -350 50
-468 110 -137 69 -245 180 -291 298 -16 42 -23 85 -27 163 -5 131 15 214 88
359 54 108 64 160 30 160 -13 0 -20 7 -20 20 0 13 7 20 20 20 19 0 20 7 20 93
0 88 -2 95 -39 164 -22 39 -52 105 -67 145 -26 67 -28 85 -28 208 0 118 2 142
23 190 94 225 332 368 671 401 185 19 190 19 190 35 0 10 12 14 40 14 34 0 40
3 40 21 0 12 8 23 19 26 11 3 21 13 24 24 4 13 14 19 34 20 25 0 32 9 73 92
109 223 288 398 472 462 65 23 85 25 183 22 89 -3 122 -9 172 -29z"/>
<path d="M22571 9640 c-68 -14 -179 -72 -244 -125 -67 -55 -171 -182 -211
-255 l-27 -50 35 0 c29 0 36 4 36 19 0 16 10 21 54 26 52 7 57 10 106 72 53
64 151 142 206 163 150 57 288 18 426 -122 74 -74 80 -78 122 -78 35 0 45 -4
49 -20 3 -12 14 -20 26 -20 14 0 21 -6 21 -20 0 -15 7 -20 25 -20 14 0 25 3
25 6 0 11 -91 136 -157 215 -71 87 -168 159 -255 189 -68 24 -176 33 -237 20z"/>
<path d="M22593 9440 c-70 -14 -170 -77 -194 -121 -9 -18 -5 -19 86 -19 73 0
95 3 95 14 0 18 96 26 212 19 64 -4 88 -10 88 -19 0 -9 11 -14 27 -14 l27 0
-39 41 c-76 77 -203 119 -302 99z"/>
<path d="M21640 8934 c-14 -2 -59 -9 -100 -15 -178 -26 -339 -98 -437 -196
-68 -67 -92 -109 -118 -198 -25 -86 -16 -224 22 -330 l28 -80 3 48 c3 39 6 47
23 47 17 0 19 7 19 59 0 33 4 62 9 65 4 3 10 41 13 83 6 96 31 157 91 217 48
47 153 106 225 125 23 7 42 16 42 21 0 4 18 11 40 15 26 4 40 12 40 22 0 8 9
17 20 20 11 3 20 14 20 24 0 14 7 19 25 19 18 0 25 5 25 20 0 17 7 20 40 20
22 0 40 5 40 10 0 10 -20 11 -70 4z"/>
<path d="M23648 8923 c13 -3 22 -12 22 -23 0 -14 10 -20 40 -25 25 -4 40 -12
40 -21 0 -8 9 -14 20 -14 15 0 20 -7 20 -25 0 -20 5 -25 24 -25 13 0 26 -3 28
-7 2 -5 36 -19 77 -33 140 -46 243 -133 278 -234 13 -38 17 -78 15 -153 -2
-97 -1 -103 18 -103 18 0 20 -7 20 -85 0 -113 17 -114 61 -2 31 77 33 89 34
207 0 116 -2 129 -27 184 -91 193 -259 304 -532 351 -76 13 -203 20 -138 8z"/>
<path d="M23960 8646 c0 -9 9 -16 20 -16 13 0 20 -7 20 -20 0 -14 7 -20 21
-20 12 0 23 -8 26 -19 5 -18 41 -36 52 -25 8 8 -58 70 -99 93 -33 19 -40 20
-40 7z"/>
<path d="M21310 8640 c-13 -8 -12 -10 3 -10 9 0 17 5 17 10 0 12 -1 12 -20 0z"/>
<path d="M21240 8585 c-31 -32 -32 -35 -12 -35 15 0 22 6 22 20 0 13 7 20 20
20 11 0 20 7 20 15 0 23 -13 18 -50 -20z"/>
<path d="M21196 8531 c-4 -7 -5 -15 -2 -18 9 -9 19 4 14 18 -4 11 -6 11 -12 0z"/>
<path d="M24131 8474 c0 -11 3 -14 6 -6 3 7 2 16 -1 19 -3 4 -6 -2 -5 -13z"/>
<path d="M21006 7460 c-111 -340 47 -602 419 -695 115 -29 205 -40 205 -26 0
6 -11 11 -25 11 -18 0 -25 5 -25 20 0 13 -7 20 -20 20 -13 0 -20 7 -20 20 0
13 -7 20 -20 20 -13 0 -20 7 -20 20 0 13 -7 20 -20 20 -11 0 -20 4 -20 8 0 4
-31 18 -69 30 -79 26 -174 84 -214 132 -56 66 -69 107 -81 245 -9 110 -14 130
-28 133 -13 3 -18 14 -19 40 -1 20 -4 48 -8 62 -7 21 -12 12 -35 -60z"/>
<path d="M24250 7456 c0 -81 -1 -86 -21 -86 -20 0 -21 -3 -15 -61 13 -114 -22
-215 -101 -291 -47 -45 -148 -103 -196 -112 -19 -4 -38 -13 -41 -21 -3 -8 -12
-15 -20 -15 -9 0 -18 -14 -22 -35 -6 -31 -10 -36 -45 -41 -29 -5 -39 -11 -39
-25 0 -12 -7 -19 -20 -19 -11 0 -20 -4 -20 -10 0 -13 3 -13 100 6 368 69 576
296 532 579 -16 105 -53 209 -74 213 -16 3 -18 -6 -18 -82z"/>
<path d="M24131 7198 c0 -9 -4 -25 -7 -35 -5 -17 -5 -17 6 0 6 10 9 25 7 35
-4 15 -5 15 -6 0z"/>
<path d="M21190 7152 c0 -20 55 -84 95 -112 34 -23 45 -27 45 -15 0 8 -9 15
-20 15 -13 0 -20 7 -20 20 0 13 -7 20 -20 20 -13 0 -20 7 -20 20 0 13 -7 20
-20 20 -13 0 -20 7 -20 20 0 11 -4 20 -10 20 -5 0 -10 -3 -10 -8z"/>
<path d="M24090 7109 c0 -5 5 -7 10 -4 6 3 10 8 10 11 0 2 -4 4 -10 4 -5 0
-10 -5 -10 -11z"/>
<path d="M24050 7069 c0 -5 5 -7 10 -4 6 3 10 8 10 11 0 2 -4 4 -10 4 -5 0
-10 -5 -10 -11z"/>
<path d="M24000 7030 c0 -5 7 -7 15 -4 8 4 15 8 15 10 0 2 -7 4 -15 4 -8 0
-15 -4 -15 -10z"/>
<path d="M23210 6445 c0 -8 2 -15 4 -15 2 0 6 7 10 15 3 8 1 15 -4 15 -6 0
-10 -7 -10 -15z"/>
<path d="M22110 6409 c0 -17 111 -161 168 -217 117 -115 221 -168 351 -179
139 -12 269 46 401 177 74 73 185 218 175 228 -2 2 -19 0 -38 -3 -24 -5 -37
-14 -40 -27 -5 -17 -12 -20 -45 -16 -33 3 -38 1 -34 -14 3 -13 -2 -18 -18 -18
-14 0 -49 -25 -93 -66 -185 -175 -378 -174 -564 2 -31 29 -63 56 -70 58 -7 3
-13 12 -13 21 0 10 -10 15 -27 15 -64 0 -103 12 -103 31 0 14 -7 18 -25 17
-14 -1 -25 -5 -25 -9z"/>
<path d="M22444 6301 c42 -44 120 -82 181 -88 50 -5 63 -2 133 33 l77 39 -187
3 c-180 2 -188 3 -188 22 0 14 -7 20 -22 20 -21 0 -21 -1 6 -29z"/>
<path d="M9350 10153 c-102 -11 -296 -48 -406 -78 -888 -244 -1580 -984 -1764
-1886 -39 -191 -53 -359 -47 -569 9 -282 45 -483 134 -745 205 -600 659 -1114
1240 -1404 674 -336 1481 -342 2160 -16 267 128 471 273 684 485 266 265 458
565 582 910 200 556 193 1190 -20 1735 -126 321 -366 678 -605 900 -403 373
-877 596 -1408 661 -120 14 -133 14 -149 0 -29 -27 -72 -29 -116 -6 -33 17
-56 20 -145 18 -58 0 -121 -3 -140 -5z m-925 -1078 c86 -110 160 -201 164
-203 4 -1 34 86 66 194 33 107 62 200 65 205 5 7 102 31 106 26 12 -14 277
-485 426 -757 338 -615 317 -580 344 -580 17 0 24 6 24 20 0 15 7 20 25 20 18
0 25 -5 25 -20 0 -17 7 -20 48 -20 l47 0 145 153 c80 83 165 173 187 198 l42
45 -161 49 c-182 55 -218 77 -218 131 0 19 7 46 16 59 9 14 120 121 248 238
482 446 496 457 567 457 33 0 221 -52 439 -121 105 -33 133 -46 173 -82 l49
-43 -216 -169 c-119 -92 -214 -171 -211 -174 4 -3 97 -35 208 -71 l202 -66 3
-55 3 -55 -223 -123 c-123 -67 -411 -227 -640 -354 l-418 -232 0 -102 c0 -83
-3 -102 -15 -105 -10 -2 55 -71 177 -189 106 -102 198 -188 205 -192 8 -5 32
56 78 195 37 112 71 207 76 212 17 19 145 -95 311 -277 95 -105 236 -259 312
-341 77 -83 146 -167 154 -186 22 -54 10 -135 -56 -358 -60 -200 -139 -405
-154 -396 -5 4 -270 342 -354 453 -9 12 -25 -27 -78 -191 -48 -150 -71 -208
-84 -212 -9 -3 -33 -8 -53 -11 l-36 -7 -314 564 c-172 309 -338 609 -369 664
l-55 102 -98 4 c-60 2 -101 8 -105 15 -7 11 -113 -95 -341 -339 l-62 -67 103
-31 c188 -57 229 -73 254 -103 29 -34 30 -62 5 -103 -31 -51 -686 -646 -739
-671 -66 -32 -104 -29 -286 23 -278 78 -299 87 -424 170 -2 2 20 31 48 66 43
51 274 242 353 292 14 9 -20 23 -195 81 l-213 70 -5 53 -6 52 396 219 c217
120 519 287 670 371 l275 153 -3 52 c-2 29 1 68 6 88 l10 36 -206 197 c-175
168 -207 194 -213 178 -4 -10 -28 -85 -53 -165 -49 -157 -75 -199 -125 -199
-14 0 -39 9 -55 19 -55 36 -648 687 -676 741 -11 22 -20 55 -20 74 0 19 25
121 55 226 95 327 99 338 147 387 33 34 45 40 54 31 7 -7 82 -103 169 -213z"/>
<path d="M10514 9158 c-68 -58 -371 -336 -532 -487 -97 -90 -129 -127 -119
-132 7 -5 106 -36 218 -70 112 -34 208 -65 213 -69 5 -5 -34 -53 -86 -107
-213 -223 -350 -373 -339 -373 6 0 11 -9 11 -20 0 -11 6 -20 14 -20 8 0 16
-10 18 -22 2 -13 8 -22 14 -21 6 1 75 37 155 81 79 43 261 143 404 222 470
257 645 355 645 360 0 3 -42 18 -93 33 -272 84 -408 129 -405 137 2 4 108 90
236 190 129 100 230 186 225 191 -12 12 -474 149 -504 149 -16 0 -44 -16 -75
-42z"/>
<path d="M8710 8933 c-41 -135 -79 -246 -85 -246 -5 -1 -94 106 -197 237 -181
229 -188 237 -198 211 -22 -58 -140 -468 -140 -487 0 -10 5 -29 12 -41 18 -36
625 -697 639 -697 8 0 54 136 109 325 18 61 35 113 37 118 4 6 456 -413 492
-456 16 -21 31 -22 31 -3 0 8 16 16 39 20 l39 6 -68 122 c-37 68 -150 276
-252 463 -199 367 -366 663 -377 669 -4 3 -40 -106 -81 -241z"/>
<path d="M9205 7446 c-189 -104 -528 -291 -848 -466 -135 -74 -246 -137 -247
-140 0 -3 111 -41 248 -84 136 -44 250 -81 255 -83 4 -3 -97 -84 -225 -182
-128 -97 -234 -184 -236 -192 -4 -21 40 -39 233 -95 268 -78 272 -79 342 -22
52 42 623 569 642 592 12 14 12 19 2 26 -7 4 -107 36 -222 70 -115 35 -209 66
-209 70 0 4 48 59 108 121 316 335 368 394 364 417 -2 12 -10 22 -18 22 -8 0
-17 7 -20 15 -4 8 -9 15 -13 14 -3 0 -73 -37 -156 -83z"/>
<path d="M10455 7214 c-38 -119 -73 -218 -78 -221 -4 -2 -110 92 -236 211
l-228 215 -44 -4 c-24 -2 -50 -4 -56 -4 -7 -1 -13 -7 -13 -13 1 -7 58 -117
128 -244 70 -127 222 -402 337 -612 116 -210 213 -382 216 -382 3 0 41 111 84
246 44 135 82 247 85 249 3 1 88 -105 190 -236 101 -131 188 -239 191 -239 13
0 142 435 147 496 l4 51 -124 134 c-67 74 -212 232 -321 352 -109 119 -202
217 -205 217 -4 0 -38 -98 -77 -216z"/>
</g>
</svg>
